<svg width="64" height="64" xmlns="http://www.w3.org/2000/svg">

 <g>
  <title>Layer 1</title>
  <g id="svg_1" transform="matrix(0.0625 0 0 0.0625 0 0)">
   <g id="svg_2" transform="matrix(1.5 0 0 1.5 128 0)"/>
   <path id="svg_3" fill-rule="nonzero" fill="#000000" d="m871.871,412.3985c-28.4475,-23.871 -71.0145,-20.136 -94.842,8.259l0,0l-64.0425,75.7845l0,-219.756c0,-18.4185 -7.659,-36.255 -21.012,-48.9375l0,0l-85.467,-81.1875c-12.5985,-11.9685 -29.1075,-18.561 -46.485,-18.561l0,0l-364.524,0c-37.218,0 -67.4985,30.2805 -67.4985,67.4985l0,0l0,632.9865c0,37.218 30.2805,67.4985 67.4985,67.4985l0,0l449.991,0c37.218,0 67.4985,-30.2805 67.4985,-67.4985l0,0l0,-122.9415c2.7645,-3.2745 166.686,-197.4405 167.202,-198.051c23.9805,-28.578 20.2635,-71.112 -8.319,-95.094zm-293.88,-230.8635c90.0195,85.512 83.6265,79.2615 85.314,81.4635l0,0l-85.314,0l0,-81.4635zm89.997,646.95c0,12.4065 -10.0935,22.5 -22.5,22.5l0,0l-449.9895,0c-12.4065,0 -22.5,-10.0935 -22.5,-22.5l0,0l0,-632.9865c0,-12.4065 10.0935,-22.5 22.5,-22.5l0,0l337.4925,0l0,112.497c0,12.426 10.074,22.5 22.5,22.5l0,0l112.497,0l0,241.6935c-9.6645,11.436 -87.267,103.2645 -95.655,113.19c-6.7005,7.986 -11.523,17.5665 -13.944,27.705l0,0l-20.91,87.534c-1.9785,8.289 0.894,16.986 7.422,22.464c6.534,5.484 15.5985,6.7935 23.4105,3.408l0,0l82.575,-35.793c6.1995,-2.688 11.982,-6.339 17.1015,-10.7265l0,0l0,71.0145zm-53.5155,-145.752l34.467,28.92l-7.665,9.078c-2.2305,2.661 -5.097,4.7985 -8.2845,6.18l0,0l-41.286,17.8965l10.4565,-43.767c0.807,-3.3795 2.4135,-6.573 4.596,-9.174l0,0l7.716,-9.1335zm63.4935,-5.4645l-34.4505,-28.9065c3.495,-4.1355 116.547,-137.9145 124.365,-147.165l0,0l34.3785,28.8465l-124.293,147.225zm167.7975,-198.753l-14.4735,17.145l-34.362,-28.833l14.523,-17.1855c7.9335,-9.4545 22.065,-10.6875 31.4955,-2.7735c9.618,8.0685 10.6785,22.278 2.817,31.647z"/>
   <g id="svg_4" transform="matrix(1.5 0 0 1.5 128 0)"/>
   <path id="svg_5" fill-rule="nonzero" fill="#000000" d="m465.4925,262.997l-224.9955,0c-12.426,0 -22.5,10.074 -22.5,22.5c0,12.426 10.074,22.5 22.5,22.5l0,0l224.9955,0c12.426,0 22.5,-10.074 22.5,-22.5c0,-12.426 -10.074,-22.5 -22.5,-22.5z"/>
   <g id="svg_6" transform="matrix(1.5 0 0 1.5 128 0)"/>
   <path id="svg_7" fill-rule="nonzero" fill="#000000" d="m600.4895,399.494l-359.9925,0c-12.426,0 -22.5,10.074 -22.5,22.5c0,12.426 10.074,22.5 22.5,22.5l0,0l359.9925,0c12.426,0 22.5,-10.074 22.5,-22.5c0,-12.426 -10.074,-22.5 -22.5,-22.5z"/>
   <g id="svg_8" transform="matrix(1.5 0 0 1.5 128 0)"/>
   <path id="svg_9" fill-rule="nonzero" fill="#000000" d="m600.4895,534.4925l-359.9925,0c-12.426,0 -22.5,10.074 -22.5,22.5c0,12.426 10.074,22.5 22.5,22.5l0,0l359.9925,0c12.426,0 22.5,-10.074 22.5,-22.5c0,-12.4275 -10.074,-22.5 -22.5,-22.5z"/>
   <g id="svg_10" transform="matrix(1.5 0 0 1.5 128 0)"/>
   <path id="svg_11" fill-rule="nonzero" fill="#000000" d="m465.4925,669.4895l-224.9955,0c-12.426,0 -22.5,10.074 -22.5,22.5c0,12.426 10.074,22.5 22.5,22.5l0,0l224.9955,0c12.426,0 22.5,-10.074 22.5,-22.5c0,-12.426 -10.074,-22.5 -22.5,-22.5z"/>
  </g>
 </g>
</svg>